# xmcd CD database file
#
# Track frame offsets:
#	150
#	15517
#	30167
#	47249
#	58724
#	79973
#	94222
#	109113
#	122716
#	134165
#	143507
#	159432
#
# Disc length: 2287 seconds
#
# Revision: 0
# Processed by: cddbd v1.5.2PL0 Copyright (c) Steve Scherf et al.
# Submitted via: ACXtractor (MTCDDB.DLL V2003.07.15)
#
DISCID=9b08ed0c
DTITLE=Pete Smith - Born to the bush
DYEAR=2015
DGENRE=Country
TTITLE0=Gotta Keep'er Rollin'
TTITLE1=Iron Bark Tree
TTITLE2=Walk With Me
TTITLE3=Smithy and the Flying Emu
TTITLE4=Every Road I Travel
TTITLE5=My Old Pocket Knife
TTITLE6=West of Winton
TTITLE7=A Little Piece of Heaven
TTITLE8=Born to the Bush
TTITLE9=Calvary Way
TTITLE10=Ballad of Port Macquarie
TTITLE11=Silver Gypsy
EXTD=ID3G:   2 YEAR: 2015
EXTT0=
EXTT1=
EXTT2=
EXTT3=
EXTT4=
EXTT5=
EXTT6=
EXTT7=
EXTT8=
EXTT9=
EXTT10=
EXTT11=
PLAYORDER=
